<svg height="48" width="48" xmlns="http://www.w3.org/2000/svg"><path d="M38.6 28.06 32.17 15a.93.93 0 0 1-.05-.1 2.88 2.88 0 0 0-.7-.9 3.48 3.48 0 0 0-2.42-.92h-2.21a1.11 1.11 0 0 0-.65.22l-2.3 1.7-1.58-1.52a1.06 1.06 0 0 0-.49-.26 1 1 0 0 0-.56-.17H19a3.5 3.5 0 0 0-2.05.66 2.81 2.81 0 0 0-1.07 1.17L9.4 28.06a1.06 1.06 0 0 0 .49 1.44l3.16 1.57a1.09 1.09 0 0 0 1.4-.4L15.5 29v2.46a3.51 3.51 0 0 0 3.5 3.46h10a3.5 3.5 0 0 0 3.5-3.5V29l1 1.64a1.09 1.09 0 0 0 1.4.41l3.16-1.57a1.06 1.06 0 0 0 .49-1.44ZM19 15.24h1.93l8 7.63h-2.39l-7.86-7.55a1.49 1.49 0 0 1 .32-.08Zm-2.42 5.56a1.09 1.09 0 0 0-1.08 1.08v3l-2.37 3.85-1.32-.73 5.47-11 6.15 5.9h-5.77v-1a1.08 1.08 0 0 0-1.08-1.1Zm13.8 10.62A1.35 1.35 0 0 1 29 32.76H19a1.36 1.36 0 0 1-1.35-1.34v-3.15h12.73Zm0-5.31H17.66V25h12.7v.8a.88.88 0 0 0 0 .16v.12Zm4.49 2.58-2.35-3.81V24a1.07 1.07 0 0 0-.23-.65 1 1 0 0 0-.3-.53l-6.57-6.31 1.73-1.31H29a1.3 1.3 0 0 1 .91.37l.06.05a.87.87 0 0 1 .17.21l6 12.09Z"/></svg>