<?xml version="1.0" encoding="utf-8"?><svg version="1.1" id="Layer_1" xmlns="http://www.w3.org/2000/svg" xmlns:xlink="http://www.w3.org/1999/xlink" x="0px" y="0px" viewBox="0 0 122.88 83.15" style="enable-background:new 0 0 122.88 83.15" xml:space="preserve"><g><path d="M0.22,13.88c-0.63-1.59,0.15-3.39,1.74-4.01c1.59-0.63,3.39,0.15,4.01,1.74l3.64,9.21c5.2-4.5,10.22-7.24,14.95-8.59 l-7.25-6.9c-1.24-1.18-1.28-3.13-0.11-4.37c1.18-1.24,3.13-1.28,4.37-0.11l10.89,10.36c4.22,0.15,8.08,1.43,11.48,3.54 c7.26,4.49,12.33,6.76,17.05,6.85c4.67,0.1,9.45-1.94,16.17-6.05c3.7-2.26,7.96-3.88,12.49-4.36L100.5,0.85 c1.24-1.18,3.19-1.13,4.37,0.11c1.18,1.24,1.13,3.19-0.11,4.37l-6.68,6.36c5.24,1.21,10.51,4.17,15.33,9.57l3.48-9.57 c0.58-1.6,2.35-2.43,3.95-1.85c1.6,0.58,2.43,2.35,1.85,3.95l-22.53,61.87l2.27,2.16c1.24,1.18,1.28,3.13,0.11,4.37 c-1.18,1.24-3.13,1.28-4.37,0.11l-4.06-3.86H27.96L23.9,82.3c-1.24,1.18-3.19,1.13-4.37-0.11c-1.18-1.24-1.13-3.19,0.11-4.37 l4.24-4.04L0.22,13.88L0.22,13.88z M87.61,72.24l-26.57-25.3l-26.57,25.3H87.61L87.61,72.24z M56.56,42.68l-26.5-25.23 c-0.93,0.08-1.88,0.23-2.85,0.46c-4.62,1.09-9.72,3.92-15.17,9.02l16.69,42.24L56.56,42.68L56.56,42.68z M43.39,21.62l17.64,16.8 L78.1,22.18c-6.61,3.82-11.77,5.71-17.23,5.59C55.53,27.66,50.25,25.63,43.39,21.62L43.39,21.62z M65.51,42.68l29.77,28.34 l15.75-43.23c-0.31-0.19-0.59-0.43-0.83-0.73c-4.43-5.62-9.24-8.49-13.93-9.45c-1.34-0.28-2.68-0.4-4-0.39L65.51,42.68L65.51,42.68 z"/></g></svg>