<?xml version="1.0" encoding="utf-8"?><svg version="1.1" id="Layer_1" xmlns="http://www.w3.org/2000/svg" xmlns:xlink="http://www.w3.org/1999/xlink" x="0px" y="0px" viewBox="0 0 122.88 114.33" style="enable-background:new 0 0 122.88 114.33" xml:space="preserve"><g><path d="M9.31,2.15h104.25c0.33,0,0.65,0.06,0.94,0.17l1.21-1.15c1.7-1.62,4.39-1.55,6,0.15s1.55,4.39-0.15,6l-5.38,5.12v92.5 l2.17,2.07c1.7,1.62,1.77,4.3,0.15,6c-1.62,1.7-4.3,1.77-6,0.15l-1.03-0.98H11.41l-1.03,0.98c-1.7,1.62-4.39,1.55-6-0.15 c-1.62-1.7-1.55-4.39,0.15-6l2.17-2.06v-92.5L1.32,7.32c-1.7-1.62-1.77-4.3-0.15-6s4.3-1.77,6-0.15l1.21,1.15 C8.67,2.21,8.99,2.15,9.31,2.15L9.31,2.15z M105.97,106.94L93.85,95.4c-7.31,6.2-16.42,10.34-26.44,11.53H105.97L105.97,106.94z M84.56,86.56L61.44,64.55L38.31,86.57c6.36,5.01,14.4,8,23.12,8C70.17,94.57,78.2,91.58,84.56,86.56L84.56,86.56z M55.28,58.69 L30.93,35.51c-4.34,6.11-6.9,13.58-6.9,21.65c0,8.87,3.09,17.01,8.24,23.43L55.28,58.69L55.28,58.69z M21.65,26.67l-9.71-9.25 v31.81C13.27,40.84,16.69,33.13,21.65,26.67L21.65,26.67z M13.7,7.39L27.37,20.4c7.57-7.02,17.31-11.73,28.11-13.01H13.7L13.7,7.39 z M36.61,29.19l24.83,23.64l24.83-23.64c-6.6-5.87-15.3-9.43-24.83-9.43C51.91,19.76,43.21,23.32,36.61,29.19L36.61,29.19z M67.6,58.69l23,21.9c5.16-6.41,8.24-14.56,8.24-23.42c0-8.07-2.55-15.54-6.9-21.65L67.6,58.69L67.6,58.69z M99.84,89.38 l11.1,10.57V65.09C109.49,74.25,105.55,82.59,99.84,89.38L99.84,89.38z M11.94,99.95l11.1-10.57c-5.71-6.8-9.65-15.13-11.1-24.29 V99.95L11.94,99.95z M95.51,20.4l13.67-13.01H67.4C78.2,8.67,87.94,13.38,95.51,20.4L95.51,20.4z M110.94,17.43l-9.71,9.25 c4.96,6.46,8.38,14.16,9.71,22.56V17.43L110.94,17.43z M29.03,95.41l-12.12,11.53h38.55C45.45,105.75,36.34,101.61,29.03,95.41 L29.03,95.41z"/></g></svg>