<?xml version="1.0" encoding="utf-8"?><svg fill="#a65b69" version="1.1" id="Layer_1" xmlns="http://www.w3.org/2000/svg" xmlns:xlink="http://www.w3.org/1999/xlink" x="0px" y="0px" viewBox="0 0 122.88 53.28" style="enable-background:new 0 0 122.88 53.28" xml:space="preserve"><g><path d="M40.46,23.31c-2.7-1.97-5.53-3.41-8.46-4.47c-3.5-1.26-7.19-1.99-11.01-2.4H4.76v24.35h16.09 c4.12-0.76,7.61-2.62,10.82-5.63C34.74,32.27,37.58,28.34,40.46,23.31L40.46,23.31z M87.1,49.19c0.95,0.9,0.99,2.41,0.08,3.36 c-0.9,0.95-2.41,0.99-3.36,0.08l-11.2-10.66c-3,2.01-6.19,3.45-9.53,4.24c-5.32,1.25-10.95,0.82-16.68-1.6l-8.43,8.03 c-0.95,0.9-2.45,0.87-3.36-0.08c-0.9-0.95-0.87-2.45,0.08-3.36l7.23-6.88c-2.05-1.24-4.11-2.75-6.15-4.53 c-0.29,0.29-0.58,0.57-0.87,0.85c-3.93,3.69-8.24,5.96-13.35,6.88c-0.17,0.04-0.34,0.06-0.52,0.06H2.38C1.07,45.55,0,44.49,0,43.17 V14.06c0-1.31,1.07-2.38,2.38-2.38h18.67v0.01c0.08,0,0.16,0,0.24,0.01c4.23,0.44,8.34,1.24,12.3,2.68 c3.9,1.41,7.63,3.41,11.15,6.25c0.91-0.9,1.84-1.75,2.79-2.53L32.84,4.1c-0.95-0.9-0.99-2.41-0.08-3.36 c0.9-0.95,2.41-0.99,3.36-0.08L51.5,15.3c0.12-0.07,0.23-0.13,0.35-0.2c5.87-3.34,12.56-4.32,20.59-1.82L85.7,0.65 c0.95-0.9,2.45-0.87,3.36,0.08c0.9,0.95,0.87,2.45-0.08,3.36L77.34,15.17c1.8,0.83,3.4,1.77,4.91,2.83 c1.44,1.02,2.8,2.16,4.16,3.42c0.69-0.74,1.39-1.44,2.09-2.08c3.83-3.51,7.83-5.57,12.65-6.72c0.21-0.06,0.44-0.1,0.68-0.1h18.67 c1.32,0,2.38,1.07,2.38,2.38v29.11c0,1.32-1.07,2.38-2.38,2.38h-18.67v-0.01c-0.08,0-0.16,0-0.24-0.01 c-4.23-0.44-8.34-1.24-12.3-2.68c-3.91-1.41-7.65-3.42-11.17-6.26c-0.55,0.55-1.12,1.08-1.69,1.59L87.1,49.19L87.1,49.19z M69.08,38.6l-8.18-7.78L50.24,40.96c4.07,1.34,8.03,1.49,11.78,0.61C64.46,41,66.82,39.99,69.08,38.6L69.08,38.6z M57.46,27.53 L51,21.39c-4.11,3.24-7.79,7.94-11.34,13.43c1.97,1.65,3.93,3,5.87,4.07L57.46,27.53L57.46,27.53z M55.11,18.74l5.8,5.52l7.48-7.12 C63.32,16.1,58.97,16.78,55.11,18.74L55.11,18.74z M64.35,27.53l8.61,8.2c1.07-0.93,2.11-1.94,3.12-3.04 c2.26-2.47,4.33-5.37,6.19-8.62c-0.9-0.79-1.81-1.52-2.75-2.19c-1.41-1-2.88-1.85-4.49-2.56c-0.48-0.21-0.95-0.41-1.41-0.6 L64.35,27.53L64.35,27.53z M82.48,34.81c2.68,1.94,5.49,3.38,8.41,4.43c3.5,1.26,7.19,1.99,11.01,2.4h16.22V17.28H102.1 c-3.97,0.97-7.26,2.68-10.39,5.55C88.69,25.6,85.76,29.47,82.48,34.81L82.48,34.81z"/></g></svg>
