<?xml version="1.0" encoding="utf-8"?><svg version="1.1" id="Layer_1" xmlns="http://www.w3.org/2000/svg" xmlns:xlink="http://www.w3.org/1999/xlink" x="0px" y="0px" viewBox="0 0 122.88 103.18" style="enable-background:new 0 0 122.88 103.18" xml:space="preserve"><g><path d="M60.37,77.21c-0.52-0.36-0.96-0.78-1.33-1.25c-0.19-0.24-0.36-0.48-0.51-0.74c-0.67,0.73-1.12,1.26-1.44,1.64 c-0.35,0.41-0.55,0.65-0.8,0.84c-0.38,0.3-0.69,0.37-1.44,0.54l-0.64,0.15c-0.81,0.14-1.66,0.13-2.48-0.05 c-0.79-0.17-1.56-0.5-2.27-1c-0.54-0.38-1.01-0.83-1.4-1.33L48.04,76c-0.16-0.21-0.31-0.43-0.44-0.66l-0.11,0.15 c-0.49,0.7-1.1,1.28-1.79,1.71c-0.71,0.45-1.5,0.76-2.32,0.9l-0.02,0c-0.8,0.14-1.64,0.12-2.46-0.06c-0.79-0.17-1.56-0.5-2.26-0.99 c-0.7-0.49-1.28-1.1-1.71-1.79c-0.45-0.71-0.76-1.5-0.9-2.32c-0.14-0.81-0.13-1.66,0.05-2.48c0.17-0.79,0.5-1.56,1-2.27l0.12-0.18 c-0.26-0.05-0.51-0.11-0.76-0.19c-0.59-0.19-1.16-0.47-1.69-0.84c-0.7-0.49-1.28-1.1-1.71-1.79c-0.45-0.71-0.76-1.5-0.9-2.32 c-0.14-0.81-0.13-1.66,0.05-2.48c0.17-0.79,0.5-1.56,1-2.27L42,45.55c-0.53-0.31-1.19-0.7-1.31-0.81 c-3.78-2.34-8.35-3.3-13.49-2.08c-4.62,1.09-9.72,3.92-15.17,9.02l17.9,45.3h64.91l16.19-44.46c-0.31-0.19-0.59-0.43-0.83-0.73 c-3.06-3.88-6.29-6.45-9.54-7.98c-3.58-1.68-7.22-2.13-10.68-1.71l-0.09,0.01c-0.08,1.03-0.25,2.06-0.52,3.07 c-0.49,1.81-1.3,3.57-2.43,5.2l-6.17,8.83l-0.35,0.48l-0.3,0.36l-0.07,0.16c-0.04,0.08-0.09,0.16-0.15,0.24L69.22,75.64 c-0.49,0.7-1.1,1.28-1.79,1.71c-0.71,0.45-1.5,0.76-2.32,0.9c-0.82,0.14-1.66,0.13-2.48-0.05C61.85,78.03,61.07,77.7,60.37,77.21 L60.37,77.21z M45.56,40.48l1.91-2.72c0.1-0.2,0.22-0.41,0.34-0.62c0.13-0.22,0.27-0.44,0.42-0.66l0.1-0.13l-1.94,0.33 c-1.72,0.31-3.21,0.21-4.47-0.18c-1.43-0.44-2.55-1.25-3.33-2.27c-0.33-0.43-0.6-0.9-0.8-1.39c-0.2-0.5-0.34-1.02-0.41-1.55 c-0.07-0.53-0.07-1.07,0-1.6c0.07-0.53,0.2-1.06,0.4-1.57c0.51-1.29,1.45-2.5,2.84-3.42c1.21-0.8,2.76-1.39,4.67-1.62 c5.88-0.98,12.03-2.46,17.87-3.26c0.91-0.14,1.77-0.23,2.6-0.26c0.7-0.03,1.38-0.01,2.03,0.04L77.89,1.06 c0.18-0.28,0.41-0.49,0.68-0.64c0.28-0.16,0.59-0.24,0.91-0.24L111.8,0c0.52,0,1,0.21,1.34,0.55c0.34,0.34,0.56,0.81,0.56,1.34 c0,0.2-0.03,0.38-0.08,0.56c-0.06,0.19-0.14,0.36-0.25,0.52L92.38,35.78c3.58-0.01,7.26,0.74,10.91,2.45 c3.48,1.64,6.9,4.16,10.11,7.77l3.49-9.57c0.58-1.6,2.35-2.43,3.95-1.85c1.6,0.58,2.43,2.35,1.85,3.95l-22.72,62.38 c-0.36,1.31-1.56,2.27-2.98,2.27H27.83c-1.23,0-2.4-0.74-2.88-1.96L0.22,38.62c-0.63-1.59,0.15-3.39,1.74-4.01 c1.59-0.63,3.39,0.15,4.01,1.74l3.64,9.21c5.66-4.89,11.11-7.72,16.19-8.92c6.85-1.62,13-0.31,18.12,2.85L45.56,40.48L45.56,40.48z M63.71,23.64c-5.9,1.09-11.85,2.23-17.75,3.24c-0.06,0.01-0.14,0.03-0.22,0.03l-0.06,0c-1.17,0.14-2.1,0.47-2.81,0.91 c-0.78,0.48-1.29,1.09-1.54,1.73c-0.09,0.22-0.14,0.43-0.17,0.64c-0.03,0.21-0.03,0.42,0,0.63c0.03,0.21,0.08,0.41,0.15,0.59 c0.07,0.17,0.17,0.35,0.3,0.51l0.03,0.04c0.34,0.42,0.85,0.75,1.53,0.93c0.67,0.18,1.51,0.21,2.51,0.03l1.34-0.23 c0.61-0.1,1.32-0.22,1.95-0.31l0.02,0c0.64-0.09,1.27-0.17,1.84-0.22c0.58-0.05,1.11-0.07,1.51-0.03c0.18,0.01,0.36,0.04,0.52,0.09 c0.17,0.05,0.34,0.14,0.5,0.25c0.25,0.17,0.45,0.39,0.59,0.64c0.11,0.2,0.19,0.42,0.22,0.65c0.62,0.9,1.26,1.7,1.9,2.4 c0.69,0.74,1.38,1.36,2.08,1.86c0.71,0.51,1.42,0.9,2.13,1.18c0.71,0.28,1.41,0.44,2.09,0.49c0.65,0.05,1.3-0.01,1.92-0.18 c0.63-0.17,1.25-0.44,1.84-0.81c0.47-0.29,0.92-0.65,1.36-1.08c0.44-0.43,0.86-0.92,1.26-1.46c0.2-0.28,0.59-0.34,0.86-0.14 l2.11,1.52c0.28,0.2,0.34,0.59,0.14,0.86c-0.54,0.76-1.12,1.43-1.73,2.02c-0.62,0.6-1.27,1.11-1.94,1.54 c-0.93,0.59-1.92,1.02-2.94,1.28c-1.02,0.26-2.08,0.36-3.15,0.28l-0.02,0c-1.04-0.07-2.09-0.31-3.13-0.71 c-1.02-0.4-2.04-0.95-3.04-1.67c-0.75-0.54-1.49-1.18-2.21-1.9c-0.52-0.52-1.02-1.09-1.52-1.71l-1,1.45 c-1.04,1.77-2.39,3.59-3.55,5.31c-0.04,0.06-0.1,0.12-0.16,0.16L36.31,60.37c-0.18,0.26-0.3,0.56-0.37,0.86 c-0.07,0.33-0.08,0.66-0.02,0.99c0.06,0.32,0.18,0.64,0.35,0.91c0.17,0.27,0.4,0.51,0.68,0.71c0.28,0.19,0.58,0.32,0.89,0.39 c0.33,0.07,0.66,0.07,0.99,0.02c0.33-0.06,0.64-0.18,0.92-0.36l0.02-0.01c0.26-0.17,0.49-0.39,0.68-0.66l11.37-16.03 c0.2-0.28,0.58-0.34,0.86-0.15c0.64,0.51,1.46,1.05,2.13,1.52c0.28,0.19,0.35,0.58,0.15,0.86l-1.61,2.29 c-4.69,6.66-8.5,12.06-13.13,18.69c-0.19,0.27-0.32,0.58-0.39,0.89c-0.07,0.33-0.08,0.67-0.02,0.99l0.01,0.04 c0.06,0.31,0.18,0.61,0.35,0.88l0.02,0.03c0.17,0.26,0.39,0.49,0.65,0.67c0.27,0.19,0.58,0.32,0.89,0.39 c0.33,0.07,0.67,0.08,0.99,0.02c0.32-0.06,0.64-0.18,0.92-0.36l0.04-0.02c0.25-0.17,0.48-0.39,0.67-0.65l14.78-20.95 c0.2-0.28,0.58-0.35,0.86-0.15l2.17,1.52c0.28,0.19,0.35,0.58,0.15,0.86L51.03,70.68c-0.19,0.28-0.32,0.58-0.39,0.89 c-0.07,0.33-0.08,0.66-0.02,0.99c0.06,0.32,0.18,0.64,0.36,0.92c0.17,0.27,0.4,0.51,0.67,0.7c0.27,0.19,0.58,0.32,0.89,0.39 c0.33,0.07,0.67,0.08,0.99,0.02c0.32-0.06,0.64-0.18,0.92-0.35c0.27-0.17,0.51-0.4,0.71-0.67l3.64-5.21 c2.62-3.7,5.07-7.26,7.85-10.81c0.21-0.26,0.59-0.31,0.86-0.11c0.27,0.19,0.51,0.37,0.75,0.56c0.4,0.3,0.8,0.62,1.17,0.83 c0.29,0.17,0.4,0.55,0.23,0.84l-7.71,10.89c-0.19,0.28-0.32,0.59-0.39,0.9c-0.07,0.32-0.08,0.65-0.02,0.98 c0.06,0.33,0.18,0.64,0.36,0.93l0.02,0.04c0.17,0.25,0.39,0.48,0.65,0.67c0.27,0.19,0.58,0.32,0.89,0.39 c0.33,0.07,0.66,0.08,0.99,0.02c0.32-0.06,0.64-0.18,0.91-0.35c0.27-0.17,0.51-0.4,0.7-0.68l5.41-7.64 c4.09-5.87,8.2-11.73,12.3-17.6c0.96-1.38,1.6-2.95,1.95-4.57c0.37-1.73,0.39-3.52,0.11-5.16c-0.03-0.17,0.01-0.33,0.11-0.46 l22.29-34.19L80.57,3.97c-2.56,4.9-5.29,10.99-8.2,15.55c-1.56,2.44-2.16,3.38-2.9,3.76c-0.53,0.27-0.98,0.24-1.7,0.18 C66.97,23.4,65.79,23.31,63.71,23.64L63.71,23.64z"/></g></svg>