<?xml version="1.0" encoding="utf-8"?><svg version="1.1" id="Layer_1" xmlns="http://www.w3.org/2000/svg" xmlns:xlink="http://www.w3.org/1999/xlink" x="0px" y="0px" viewBox="0 0 121.17 122.88" style="enable-background:new 0 0 121.17 122.88" xml:space="preserve"><g><path d="M31.15,7.81c-2.16,0-3.9-1.75-3.9-3.9c0-2.16,1.75-3.9,3.9-3.9h72.43c2.02,0,3.69,1.54,3.88,3.51l13.65,81.33 c0.35,2.12-1.08,4.13-3.2,4.48c-0.22,0.04-0.43,0.05-0.64,0.05v0.01H3.9c-2.16,0-3.9-1.75-3.9-3.9c0-0.38,0.05-0.74,0.15-1.09 c1.9-8.99,4.59-17.16,8.3-24.27c3.83-7.34,8.74-13.52,14.96-18.27C36.46,31.9,46.8,32,60.63,32.12c0.65,0.01,1.29,0.01,4.63,0.01 h39.1l-4.08-24.32H31.15L31.15,7.81z M63.47,118.34c0,2.07-1.68,3.74-3.74,3.74s-3.74-1.68-3.74-3.74v-17.98 c0-2.07,1.68-3.74,3.74-3.74s3.74,1.68,3.74,3.74V118.34L63.47,118.34z M95.51,116.4c1.07,1.76,0.52,4.06-1.24,5.13 c-1.76,1.07-4.06,0.52-5.13-1.24l-10.96-18c-1.07-1.76-0.52-4.06,1.24-5.13c1.76-1.07,4.06-0.52,5.13,1.24L95.51,116.4L95.51,116.4 z M32.05,121.09c-1.07,1.76-3.37,2.32-5.13,1.24c-1.76-1.07-2.32-3.37-1.24-5.13l11.45-18.8c1.07-1.76,3.37-2.32,5.13-1.24 c1.76,1.07,2.32,3.37,1.24,5.13L32.05,121.09L32.05,121.09z M112.67,81.58l-6.99-41.64H65.26l-4.69-0.04 c-12.3-0.11-21.5-0.19-32.42,8.15c-5.29,4.04-9.49,9.35-12.8,15.68c-2.75,5.27-4.9,11.26-6.56,17.85H112.67L112.67,81.58z"/></g></svg>