<?xml version="1.0" encoding="utf-8"?><svg version="1.1" id="Layer_1" xmlns="http://www.w3.org/2000/svg" xmlns:xlink="http://www.w3.org/1999/xlink" x="0px" y="0px" viewBox="0 0 122.88 68.79" style="enable-background:new 0 0 122.88 68.79" xml:space="preserve"><g><path d="M0.22,4.23c-0.63-1.59,0.15-3.39,1.74-4.01c1.59-0.63,3.39,0.15,4.01,1.74l3.64,9.21c5.66-4.89,11.11-7.72,16.19-8.92 c6.86-1.62,13.01-0.31,18.13,2.86c7.26,4.49,12.33,6.76,17.05,6.85c4.67,0.1,9.45-1.94,16.17-6.05C82.94,2.36,90.12,0.4,97.5,1.91 c5.44,1.12,10.91,4.1,15.9,9.7l3.48-9.57c0.58-1.6,2.35-2.43,3.95-1.85c1.6,0.58,2.43,2.35,1.85,3.95L99.98,66.52 c-0.36,1.31-1.56,2.27-2.98,2.27H27.83c-1.23,0-2.4-0.74-2.88-1.96L0.22,4.23L0.22,4.23z M12.03,17.3l17.9,45.3h64.91l16.19-44.46 c-0.31-0.19-0.59-0.43-0.83-0.73c-4.43-5.62-9.24-8.49-13.93-9.45c-5.68-1.17-11.3,0.41-15.9,3.22 c-7.73,4.73-13.44,7.07-19.51,6.95c-6.02-0.12-11.95-2.69-20.17-7.77c-3.78-2.34-8.35-3.3-13.49-2.08 C22.59,9.36,17.49,12.19,12.03,17.3L12.03,17.3z"/></g></svg>