<svg height="48" viewBox="0 0 48 48" width="48" xmlns="http://www.w3.org/2000/svg"><path d="M39.45 28.29 32.64 14.5v-.1a2.94 2.94 0 0 0-.74-.94 3.68 3.68 0 0 0-2.51-1H27a1.12 1.12 0 0 0-.68.23L24 14.39l-2.27-1.71a1.12 1.12 0 0 0-.68-.23h-2.33a3.69 3.69 0 0 0-2.17.7 3 3 0 0 0-1.13 1.23L8.55 28.29a1.19 1.19 0 0 0-.06.87 1.15 1.15 0 0 0 .58.66l3.35 1.66a1.15 1.15 0 0 0 1.48-.43l1.1-1.81v2.6a3.71 3.71 0 0 0 3.71 3.71h10.62A3.71 3.71 0 0 0 33 31.84v-2.53l1.07 1.74a1.15 1.15 0 0 0 1.48.43l3.35-1.66a1.15 1.15 0 0 0 .58-.66 1.19 1.19 0 0 0-.03-.87Zm-4 .68-2.49-4v-.88a1.14 1.14 0 1 0-2.28 0v1.89a1.11 1.11 0 0 0 0 .17v5.73a1.42 1.42 0 0 1-1.42 1.42H18.72a1.41 1.41 0 0 1-1.42-1.42v-7.83a1.15 1.15 0 1 0-2.29 0v.84L12.5 29l-1.39-.69 6.36-12.91a.69.69 0 0 1 .28-.3l.12-.08a1.44 1.44 0 0 1 .85-.28h1.94l2.65 2a1.14 1.14 0 0 0 1.38 0l2.65-2h2a1.46 1.46 0 0 1 1 .38s0 0 .05.05a.66.66 0 0 1 .18.23l6.32 12.8Zm-13-7.77A1.52 1.52 0 1 0 24 19.68a1.52 1.52 0 0 0-1.52 1.52Zm0 6.47A1.52 1.52 0 1 0 24 26.15a1.53 1.53 0 0 0-1.52 1.52Z"/></svg>