<?xml version="1.0" encoding="utf-8"?><svg version="1.1" id="Layer_1" xmlns="http://www.w3.org/2000/svg" xmlns:xlink="http://www.w3.org/1999/xlink" x="0px" y="0px" viewBox="0 0 122.88 68.79" style="enable-background:new 0 0 122.88 68.79" xml:space="preserve"><g><path d="M0.22,4.23c-0.63-1.59,0.15-3.39,1.74-4.01c1.59-0.63,3.39,0.15,4.01,1.74l3.64,9.21c5.66-4.89,11.11-7.72,16.19-8.92 c6.86-1.62,13.01-0.31,18.13,2.86c7.26,4.49,12.33,6.76,17.05,6.85c4.67,0.1,9.45-1.94,16.17-6.05C82.94,2.36,90.12,0.4,97.5,1.91 c5.44,1.12,10.91,4.1,15.9,9.7l3.48-9.57c0.58-1.6,2.35-2.43,3.95-1.85c1.6,0.58,2.43,2.35,1.85,3.95L99.98,66.52 c-0.36,1.31-1.56,2.27-2.98,2.27H27.83c-1.23,0-2.4-0.74-2.88-1.96L0.22,4.23L0.22,4.23z M63.4,40.12c0-4.91,0.88-8.35,2.65-10.31 c1.77-1.96,4.47-2.94,8.08-2.94c1.74,0,3.17,0.22,4.29,0.64c1.12,0.43,2.03,0.99,2.73,1.67c0.71,0.69,1.26,1.41,1.67,2.17 c0.41,0.76,0.73,1.64,0.98,2.65c0.48,1.93,0.72,3.94,0.72,6.03c0,4.69-0.79,8.12-2.38,10.29c-1.58,2.17-4.32,3.26-8.2,3.26 c-2.17,0-3.93-0.35-5.27-1.04c-1.34-0.69-2.44-1.71-3.3-3.05c-0.62-0.95-1.11-2.25-1.46-3.9C63.57,43.95,63.4,42.12,63.4,40.12 L63.4,40.12z M70.51,40.14c0,3.29,0.29,5.54,0.87,6.74c0.58,1.2,1.43,1.81,2.53,1.81c0.73,0,1.36-0.25,1.9-0.76 c0.54-0.51,0.93-1.32,1.18-2.43c0.25-1.11,0.38-2.83,0.38-5.16c0-3.43-0.29-5.74-0.87-6.92c-0.58-1.18-1.46-1.77-2.62-1.77 c-1.19,0-2.05,0.6-2.58,1.81C70.78,34.65,70.51,36.88,70.51,40.14L70.51,40.14z M51.66,48.32H38.59v-5.9l13.07-15.55h6.25v15.89 h3.25v5.56h-3.25v4.84h-6.25V48.32L51.66,48.32z M51.66,42.76V34.6l-6.9,8.16H51.66L51.66,42.76z M12.03,17.3l17.9,45.3h64.91 l16.19-44.46c-0.31-0.19-0.59-0.43-0.83-0.73c-4.43-5.62-9.24-8.49-13.93-9.45c-5.68-1.17-11.3,0.41-15.9,3.22 c-7.73,4.73-13.44,7.07-19.51,6.95c-6.02-0.12-11.95-2.69-20.17-7.77c-3.78-2.34-8.35-3.3-13.49-2.08 C22.59,9.36,17.49,12.19,12.03,17.3L12.03,17.3z"/></g></svg>