<svg height="48" viewBox="0 0 48 48" width="48" xmlns="http://www.w3.org/2000/svg"><path d="M33.63 20a1.62 1.62 0 0 0 0-.21 37 37 0 0 0-1.33-9.42A1.31 1.31 0 0 0 31 9.4H17a1.31 1.31 0 0 0-1.26 1 36.92 36.92 0 0 0-1.34 9.42 1.72 1.72 0 0 1 0 .33V37.3a1.32 1.32 0 0 0 1.32 1.32h4.68a1.31 1.31 0 0 0 1.31-1.19l1.64-17.66h1.3l1.64 17.66a1.31 1.31 0 0 0 1.31 1.17h4.72a1.32 1.32 0 0 0 1.32-1.32v-17.2l-.01-.08Zm-3.32-6.64A8.51 8.51 0 0 1 29 12h1q.16.62.31 1.35ZM19 12a8.21 8.21 0 0 1-1.29 1.28c.09-.47.19-.9.28-1.28Zm12 24h-2.2l-1.64-17.69a1.32 1.32 0 0 0-1.31-1.19h-3.7a1.32 1.32 0 0 0-1.31 1.19L19.2 36H17V20.33a4.12 4.12 0 0 0 0-.51 34.11 34.11 0 0 1 .33-4.32.85.85 0 0 0 .31-.09 9.36 9.36 0 0 0 3.27-3 .93.93 0 0 0 .13-.35h5.86a.77.77 0 0 0 .12.35 9.57 9.57 0 0 0 3.27 3 .8.8 0 0 0 .36.09 36.07 36.07 0 0 1 .35 4.32V36Z"/></svg>