<?xml version="1.0" ?><svg height="48" id="黑白" viewBox="0 0 48 48" width="48" xmlns="http://www.w3.org/2000/svg"><title/><path d="M38.6,28.06,32.17,15a.93.93,0,0,1-.05-.1h0a2.88,2.88,0,0,0-.7-.9A3.48,3.48,0,0,0,29,13.08H26.79a1.11,1.11,0,0,0-.65.22L23.84,15l-1.58-1.52a1.06,1.06,0,0,0-.49-.26,1,1,0,0,0-.56-.17H19a3.5,3.5,0,0,0-2.05.66,2.81,2.81,0,0,0-1.07,1.17L9.4,28.06a1.06,1.06,0,0,0,.49,1.44l3.16,1.57a1.09,1.09,0,0,0,1.4-.4L15.5,29v2.46A3.51,3.51,0,0,0,19,34.92H29a3.5,3.5,0,0,0,3.5-3.5V29l1,1.64a1.09,1.09,0,0,0,1.4.41l3.16-1.57a1.06,1.06,0,0,0,.49-1.44ZM19,15.24h1.93l8,7.63H26.54l0,0-7.86-7.55A1.49,1.49,0,0,1,19,15.24ZM16.58,20.8a1.09,1.09,0,0,0-1.08,1.08v3l-2.37,3.85L11.81,28,17.28,17l6.15,5.9H17.66v-1A1.08,1.08,0,0,0,16.58,20.8Zm13.8,10.62A1.35,1.35,0,0,1,29,32.76H19a1.36,1.36,0,0,1-1.35-1.34V28.27H30.38Zm0-5.31H17.66V25h12.7v.8a.88.88,0,0,0,0,.16v.12Zm4.49,2.58-2.35-3.81V24a1.07,1.07,0,0,0-.23-.65,1,1,0,0,0-.3-.53l-6.57-6.31,1.73-1.31H29a1.3,1.3,0,0,1,.91.37l.06.05a.87.87,0,0,1,.17.21v0s0,0,0,0l6,12.09Z"/></svg>
