<?xml version="1.0" ?><svg height="48" id="黑白" viewBox="0 0 48 48" width="48" xmlns="http://www.w3.org/2000/svg"><title/><path d="M39.45,28.29,32.64,14.5s0-.07,0-.1v0a2.94,2.94,0,0,0-.74-.94,3.68,3.68,0,0,0-2.51-1H27a1.12,1.12,0,0,0-.68.23L24,14.39l-2.27-1.71a1.12,1.12,0,0,0-.68-.23H18.72a3.69,3.69,0,0,0-2.17.7,3,3,0,0,0-1.13,1.23L8.55,28.29a1.19,1.19,0,0,0-.06.87,1.15,1.15,0,0,0,.58.66l3.35,1.66a1.15,1.15,0,0,0,1.48-.43L15,29.24v2.6a3.71,3.71,0,0,0,3.71,3.71H29.33A3.71,3.71,0,0,0,33,31.84V29.31l1.07,1.74a1.15,1.15,0,0,0,1.48.43l3.35-1.66a1.15,1.15,0,0,0,.58-.66A1.19,1.19,0,0,0,39.45,28.29Zm-4,.68-2.49-4v-.88a1.14,1.14,0,1,0-2.28,0v1.89a1.11,1.11,0,0,0,0,.17v5.73a1.42,1.42,0,0,1-1.42,1.42H18.72a1.41,1.41,0,0,1-1.42-1.42V24.05a1.15,1.15,0,1,0-2.29,0v.84L12.5,29l-1.39-.69L17.47,15.4a.69.69,0,0,1,.28-.3l.12-.08a1.44,1.44,0,0,1,.85-.28h1.94l2.65,2a1.14,1.14,0,0,0,1.38,0l2.65-2h2a1.46,1.46,0,0,1,1,.38s0,0,.05.05a.66.66,0,0,1,.18.23l0,0,0,0,6.32,12.8Zm-13-7.77A1.52,1.52,0,1,0,24,19.68,1.52,1.52,0,0,0,22.48,21.2Zm0,6.47A1.52,1.52,0,1,0,24,26.15,1.53,1.53,0,0,0,22.48,27.67Z"/></svg>