<?xml version="1.0" ?><svg height="48" id="黑白" viewBox="0 0 48 48" width="48" xmlns="http://www.w3.org/2000/svg"><title/><path d="M33.63,20a1.62,1.62,0,0,0,0-.21,37,37,0,0,0-1.33-9.42A1.31,1.31,0,0,0,31,9.4H17a1.31,1.31,0,0,0-1.26,1,36.92,36.92,0,0,0-1.34,9.42,1.72,1.72,0,0,1,0,.33c0,.05,0,.1,0,.15v17a1.32,1.32,0,0,0,1.32,1.32H20.4a1.31,1.31,0,0,0,1.31-1.19l1.64-17.66h1.3l1.64,17.66A1.31,1.31,0,0,0,27.6,38.6h4.72a1.32,1.32,0,0,0,1.32-1.32V20.08S33.63,20,33.63,20Zm-3.32-6.64A8.51,8.51,0,0,1,29,12H30Q30.16,12.62,30.31,13.35ZM19,12a8.21,8.21,0,0,1-1.29,1.28c.09-.47.19-.9.28-1.28ZM31,36H28.8L27.16,18.31a1.32,1.32,0,0,0-1.31-1.19h-3.7a1.32,1.32,0,0,0-1.31,1.19L19.2,36H17V20.33a4.12,4.12,0,0,0,0-.51,34.11,34.11,0,0,1,.33-4.32.85.85,0,0,0,.31-.09,9.36,9.36,0,0,0,3.27-3,.93.93,0,0,0,.13-.35h5.86a.77.77,0,0,0,.12.35,9.57,9.57,0,0,0,3.27,3,.8.8,0,0,0,.36.09A36.07,36.07,0,0,1,31,19.82c0,.1,0,.2,0,.3V36Z"/></svg>