<?xml version="1.0" encoding="utf-8"?><svg fill="#a65b69" version="1.1" id="Layer_1" xmlns="http://www.w3.org/2000/svg" xmlns:xlink="http://www.w3.org/1999/xlink" x="0px" y="0px" viewBox="0 0 122.88 122.88" style="enable-background:new 0 0 122.88 122.88" xml:space="preserve"><g><path d="M61.44,0c16.97,0,32.33,6.88,43.44,18c11.12,11.12,18,26.48,18,43.44c0,16.97-6.88,32.33-18,43.44 c-11.12,11.12-26.48,18-43.44,18c-16.96,0-32.33-6.88-43.44-18C6.88,93.76,0,78.4,0,61.44C0,44.47,6.88,29.11,18,18 C29.11,6.88,44.47,0,61.44,0L61.44,0z M45.93,84V38.88h14.61c5.54,0,9.14,0.22,10.82,0.67c2.58,0.68,4.75,2.15,6.49,4.42 c1.74,2.27,2.62,5.2,2.62,8.79c0,2.77-0.5,5.09-1.5,6.99c-1.01,1.89-2.28,3.37-3.82,4.45c-1.54,1.07-3.12,1.79-4.72,2.13 c-2.17,0.43-5.32,0.65-9.43,0.65h-5.92V84H45.93L45.93,84z M55.07,46.5v12.86h4.97c3.58,0,5.97-0.24,7.17-0.71 c1.21-0.47,2.15-1.21,2.84-2.23c0.68-1.01,1.03-2.17,1.03-3.52c0-1.65-0.48-3-1.44-4.08c-0.97-1.07-2.17-1.74-3.66-2.02 c-1.08-0.2-3.26-0.3-6.53-0.3H55.07L55.07,46.5z M95.6,27.28c-8.74-8.74-20.82-14.15-34.16-14.15c-13.34,0-25.41,5.41-34.16,14.15 c-8.74,8.74-14.15,20.82-14.15,34.16c0,13.34,5.41,25.41,14.15,34.16c8.74,8.74,20.82,14.15,34.16,14.15 c13.34,0,25.41-5.41,34.16-14.15c8.74-8.74,14.15-20.82,14.15-34.16C109.74,48.1,104.34,36.03,95.6,27.28L95.6,27.28z"/></g></svg>
