<svg height="48" viewBox="0 0 48 48" width="48" fill="#a65b69" xmlns="http://www.w3.org/2000/svg"><path d="m36.91 30.41-5.18-8a9.65 9.65 0 0 0 1.86-4.5 4.21 4.21 0 0 0 .12-1v-2.57c0-2.75-2.73-5-6.1-5h-1.54a1.58 1.58 0 0 0-.56.13 1.27 1.27 0 0 0-.7.93c-.45 2.61-3.74 4.12-9.28 4.26a1.24 1.24 0 0 0-1.22 1.25v1a4.28 4.28 0 0 0 0 .6 9.73 9.73 0 0 0 1.91 4.9l-5.19 8a1.26 1.26 0 0 0-.15 1c.57 4.15 6.13 7.25 13.06 7.25s12.32-3 13-7.07a1.27 1.27 0 0 0-.03-1.18ZM24 36.15c-5.91 0-9.92-2.43-10.52-4.81l5.4-8.34a1.25 1.25 0 0 0-.14-1.53 7.17 7.17 0 0 1-1.89-4.23.17.17 0 0 0 0-.07v-.07c3.71-.25 8.78-1.33 10.18-5.26h.6c1.95 0 3.59 1.14 3.59 2.49v2.58a2.12 2.12 0 0 1-.05.44.94.94 0 0 0 0 .16 7.09 7.09 0 0 1-1.86 4 1.25 1.25 0 0 0-.19 1.49l5.39 8.31c-.58 2.39-4.59 4.84-10.51 4.84Zm1.77-13.9a4 4 0 0 1-1.76.37 4 4 0 0 1-1.77-.37 1.25 1.25 0 0 0-1.17 2.22 6.5 6.5 0 0 0 2.94.65 6.42 6.42 0 0 0 2.93-.65 1.25 1.25 0 1 0-1.17-2.22Z"/></svg>
