<?xml version="1.0" encoding="utf-8"?><svg fill="#a65b69" version="1.1" id="Layer_1" xmlns="http://www.w3.org/2000/svg" xmlns:xlink="http://www.w3.org/1999/xlink" x="0px" y="0px" viewBox="0 0 122.27 122.88" style="enable-background:new 0 0 122.27 122.88" xml:space="preserve"><g><path d="M2.93,0h116.42c1.62,0,2.93,1.31,2.93,2.93v117.03c0,1.62-1.31,2.93-2.93,2.93H2.93c-1.62,0-2.93-1.31-2.93-2.93V2.93 C0,1.31,1.31,0,2.93,0L2.93,0z M61.14,51.72c5.37,0,9.72,4.35,9.72,9.72c0,5.37-4.35,9.72-9.72,9.72s-9.72-4.35-9.72-9.72 C51.42,56.07,55.77,51.72,61.14,51.72L61.14,51.72z M67.8,5.85c12.8,1.52,24.27,7.35,32.92,16c8.16,8.16,13.81,18.82,15.7,30.73 V5.85H67.8L67.8,5.85z M116.42,70.3c-1.89,11.91-7.54,22.57-15.7,30.73c-8.65,8.65-20.12,14.48-32.91,16h48.61V70.3L116.42,70.3z M54.47,117.03c-12.79-1.52-24.26-7.35-32.91-16C13.4,92.87,7.75,82.21,5.85,70.3v46.73H54.47L54.47,117.03z M5.85,52.59 c1.89-11.91,7.54-22.57,15.7-30.73c8.65-8.65,20.13-14.49,32.92-16H5.85V52.59L5.85,52.59z M90.67,31.9 c-7.56-7.56-18-12.23-29.54-12.23c-11.53,0-21.98,4.68-29.54,12.23c-7.56,7.56-12.23,18-12.23,29.54 c0,11.53,4.68,21.98,12.23,29.54c7.56,7.56,18,12.23,29.54,12.23c11.53,0,21.98-4.68,29.54-12.23c7.56-7.56,12.23-18,12.23-29.54 C102.91,49.91,98.23,39.46,90.67,31.9L90.67,31.9z"/></g></svg>
